<?xml version="1.0" standalone="no"?>
<!DOCTYPE svg PUBLIC "-//W3C//DTD SVG 20010904//EN"
 "http://www.w3.org/TR/2001/REC-SVG-20010904/DTD/svg10.dtd">
<svg version="1.0" xmlns="http://www.w3.org/2000/svg"
 width="16.000000pt" height="16.000000pt" viewBox="0 0 16.000000 16.000000"
 preserveAspectRatio="xMidYMid meet">
<metadata>
Created by potrace 1.11, written by Peter Selinger 2001-2013
</metadata>
<g transform="translate(0.000000,16.000000) scale(0.001778,-0.001778)"
fill="#000000" stroke="none">
<path d="M0 4500 l0 -4500 4500 0 4500 0 0 4500 0 4500 -4500 0 -4500 0 0
-4500z m2480 1156 c0 -5 -56 -209 -125 -456 -25 -91 -68 -244 -95 -340 -88
-319 -149 -538 -201 -722 -29 -101 -54 -195 -56 -210 -10 -56 58 -88 188 -88
97 0 179 15 201 38 10 10 40 97 68 197 28 99 73 259 100 355 27 96 90 324 140
505 50 182 111 400 135 485 24 85 48 174 55 198 l11 42 399 0 399 0 -23 -82
c-30 -107 -122 -438 -181 -648 -25 -91 -64 -230 -87 -310 -22 -80 -55 -199
-73 -265 -137 -499 -209 -744 -234 -794 -56 -111 -142 -172 -291 -207 -66 -15
-147 -18 -680 -21 -520 -4 -616 -2 -680 11 -192 40 -310 153 -310 297 0 39 24
140 79 340 43 156 143 514 221 794 78 281 165 591 192 690 27 99 52 183 55
188 4 7 793 10 793 3z m3305 -28 c-4 -18 -35 -132 -69 -253 l-62 -220 -857 -3
c-682 -2 -857 0 -857 10 0 7 26 108 59 223 32 116 62 225 65 243 l8 32 860 0
860 0 -7 -32z m2085 21 c0 -18 -131 -484 -138 -491 -4 -4 -216 -8 -472 -10
-327 -3 -473 -7 -492 -15 -44 -20 -49 -33 -193 -558 -18 -66 -65 -235 -104
-375 -40 -140 -71 -268 -69 -284 2 -18 14 -37 31 -50 28 -21 39 -21 513 -24
266 -1 484 -5 484 -8 0 -5 -74 -276 -120 -439 l-17 -60 -672 -3 c-565 -2 -683
0 -744 13 -186 39 -307 155 -307 294 0 37 17 116 49 231 43 152 94 334 236
845 18 66 57 203 85 305 74 267 95 340 114 384 24 57 80 129 125 160 51 36
171 73 268 84 117 14 1423 15 1423 1z m-2320 -863 c0 -6 -95 -352 -121 -438
l-20 -68 -461 -2 -462 -3 -63 -225 c-60 -215 -147 -527 -182 -655 l-16 -60
-398 -3 c-230 -1 -397 2 -397 7 0 5 11 46 24 92 24 84 64 224 156 559 27 96
73 263 103 370 30 107 69 248 87 313 l32 117 859 0 c473 0 859 -2 859 -4z"/>
</g>
</svg>
